<svg width="112" height="19" viewBox="0 0 112 19" fill="none" xmlns="http://www.w3.org/2000/svg">
<line x1="12" y1="5.5" x2="100" y2="5.5" stroke="#2A2A2A"/>
<line x1="12.5" y1="-2.18557e-08" x2="12.5" y2="11" stroke="#2A2A2A"/>
<line x1="79" y1="5.5" x2="37" y2="5.5" stroke="#802D2E"/>
<line x1="99.5" y1="-2.18557e-08" x2="99.5" y2="11" stroke="#2A2A2A"/>
<line x1="55.5" y1="-2.18557e-08" x2="55.5" y2="11" stroke="#2A2A2A"/>
<path d="M2.832 13.248C2.816 13.284 2.802 13.328 2.79 13.38C2.782 13.428 2.772 13.474 2.76 13.518C2.728 13.682 2.696 13.89 2.664 14.142C2.632 14.394 2.606 14.664 2.586 14.952C2.566 15.236 2.556 15.516 2.556 15.792C2.556 16.048 2.572 16.298 2.604 16.542C2.64 16.786 2.684 17.02 2.736 17.244C2.792 17.464 2.85 17.668 2.91 17.856L2.478 17.988C2.418 17.808 2.362 17.6 2.31 17.364C2.258 17.124 2.216 16.874 2.184 16.614C2.152 16.35 2.136 16.092 2.136 15.84C2.136 15.632 2.142 15.42 2.154 15.204C2.17 14.988 2.188 14.778 2.208 14.574C2.228 14.366 2.246 14.172 2.262 13.992C2.282 13.812 2.3 13.656 2.316 13.524C2.32 13.472 2.324 13.42 2.328 13.368C2.332 13.316 2.332 13.272 2.328 13.236L2.832 13.248ZM1.86 13.992C2.212 13.992 2.56 13.982 2.904 13.962C3.248 13.942 3.578 13.912 3.894 13.872C4.214 13.832 4.514 13.78 4.794 13.716L4.8 14.16C4.584 14.196 4.35 14.23 4.098 14.262C3.85 14.29 3.596 14.316 3.336 14.34C3.076 14.36 2.82 14.376 2.568 14.388C2.316 14.4 2.078 14.406 1.854 14.406C1.77 14.406 1.668 14.404 1.548 14.4C1.428 14.392 1.308 14.386 1.188 14.382C1.068 14.374 0.966 14.368 0.882 14.364L0.87 13.914C0.942 13.926 1.04 13.938 1.164 13.95C1.288 13.962 1.414 13.972 1.542 13.98C1.67 13.988 1.776 13.992 1.86 13.992ZM4.362 14.694C4.35 14.718 4.336 14.752 4.32 14.796C4.308 14.836 4.294 14.878 4.278 14.922C4.266 14.962 4.254 15 4.242 15.036C4.122 15.404 3.978 15.742 3.81 16.05C3.642 16.354 3.46 16.626 3.264 16.866C3.068 17.102 2.866 17.3 2.658 17.46C2.462 17.608 2.25 17.732 2.022 17.832C1.794 17.932 1.574 17.982 1.362 17.982C1.234 17.982 1.116 17.954 1.008 17.898C0.9 17.842 0.814 17.758 0.75 17.646C0.686 17.534 0.654 17.394 0.654 17.226C0.654 17.022 0.698 16.82 0.786 16.62C0.874 16.416 0.994 16.224 1.146 16.044C1.302 15.864 1.478 15.704 1.674 15.564C1.874 15.42 2.086 15.304 2.31 15.216C2.506 15.144 2.718 15.086 2.946 15.042C3.178 14.998 3.39 14.976 3.582 14.976C3.962 14.976 4.29 15.042 4.566 15.174C4.842 15.306 5.054 15.486 5.202 15.714C5.354 15.938 5.43 16.19 5.43 16.47C5.43 16.686 5.392 16.892 5.316 17.088C5.244 17.284 5.128 17.464 4.968 17.628C4.812 17.788 4.61 17.926 4.362 18.042C4.114 18.158 3.816 18.244 3.468 18.3L3.21 17.898C3.574 17.862 3.886 17.778 4.146 17.646C4.406 17.514 4.608 17.346 4.752 17.142C4.896 16.938 4.968 16.706 4.968 16.446C4.968 16.25 4.914 16.07 4.806 15.906C4.698 15.742 4.54 15.61 4.332 15.51C4.128 15.406 3.876 15.354 3.576 15.354C3.324 15.354 3.09 15.384 2.874 15.444C2.662 15.504 2.48 15.568 2.328 15.636C2.104 15.736 1.898 15.87 1.71 16.038C1.526 16.206 1.38 16.388 1.272 16.584C1.164 16.776 1.11 16.964 1.11 17.148C1.11 17.272 1.138 17.366 1.194 17.43C1.254 17.49 1.34 17.52 1.452 17.52C1.6 17.52 1.766 17.478 1.95 17.394C2.138 17.31 2.33 17.182 2.526 17.01C2.794 16.778 3.042 16.494 3.27 16.158C3.502 15.822 3.686 15.41 3.822 14.922C3.83 14.89 3.838 14.854 3.846 14.814C3.854 14.774 3.862 14.732 3.87 14.688C3.882 14.644 3.888 14.606 3.888 14.574L4.362 14.694ZM6.96 15.606C7.052 15.586 7.144 15.564 7.236 15.54C7.332 15.512 7.428 15.484 7.524 15.456C7.628 15.424 7.764 15.38 7.932 15.324C8.1 15.268 8.282 15.214 8.478 15.162C8.674 15.11 8.872 15.064 9.072 15.024C9.276 14.984 9.466 14.964 9.642 14.964C9.926 14.964 10.178 15.018 10.398 15.126C10.618 15.234 10.79 15.388 10.914 15.588C11.042 15.784 11.106 16.02 11.106 16.296C11.106 16.584 11.04 16.838 10.908 17.058C10.776 17.274 10.588 17.458 10.344 17.61C10.104 17.762 9.816 17.882 9.48 17.97C9.148 18.058 8.78 18.114 8.376 18.138L8.184 17.676C8.508 17.664 8.816 17.632 9.108 17.58C9.4 17.524 9.66 17.442 9.888 17.334C10.116 17.226 10.294 17.086 10.422 16.914C10.554 16.738 10.62 16.528 10.62 16.284C10.62 16.112 10.578 15.96 10.494 15.828C10.41 15.696 10.292 15.592 10.14 15.516C9.992 15.436 9.814 15.396 9.606 15.396C9.458 15.396 9.292 15.416 9.108 15.456C8.924 15.492 8.734 15.54 8.538 15.6C8.342 15.66 8.154 15.724 7.974 15.792C7.794 15.856 7.634 15.916 7.494 15.972C7.354 16.024 7.244 16.066 7.164 16.098L6.96 15.606ZM15.144 13.746C15.124 13.682 15.1 13.608 15.072 13.524C15.048 13.44 15.022 13.358 14.994 13.278L15.504 13.212C15.524 13.328 15.552 13.46 15.588 13.608C15.624 13.752 15.666 13.9 15.714 14.052C15.762 14.2 15.81 14.338 15.858 14.466C15.95 14.726 16.066 14.986 16.206 15.246C16.346 15.502 16.478 15.718 16.602 15.894C16.646 15.95 16.69 16.004 16.734 16.056C16.778 16.108 16.822 16.16 16.866 16.212L16.62 16.548C16.548 16.532 16.452 16.516 16.332 16.5C16.216 16.484 16.088 16.47 15.948 16.458C15.812 16.442 15.676 16.428 15.54 16.416C15.404 16.404 15.282 16.394 15.174 16.386L15.21 15.984C15.322 15.992 15.44 16.002 15.564 16.014C15.692 16.026 15.812 16.038 15.924 16.05C16.04 16.058 16.134 16.066 16.206 16.074C16.122 15.946 16.032 15.8 15.936 15.636C15.84 15.468 15.746 15.292 15.654 15.108C15.566 14.92 15.488 14.736 15.42 14.556C15.356 14.38 15.302 14.224 15.258 14.088C15.214 13.952 15.176 13.838 15.144 13.746ZM12.948 14.214C13.284 14.254 13.608 14.282 13.92 14.298C14.236 14.314 14.534 14.318 14.814 14.31C15.098 14.302 15.354 14.286 15.582 14.262C15.742 14.242 15.91 14.218 16.086 14.19C16.266 14.162 16.444 14.126 16.62 14.082C16.796 14.038 16.962 13.992 17.118 13.944L17.172 14.412C17.032 14.456 16.878 14.494 16.71 14.526C16.542 14.558 16.374 14.588 16.206 14.616C16.038 14.644 15.88 14.666 15.732 14.682C15.352 14.726 14.926 14.75 14.454 14.754C13.986 14.758 13.488 14.738 12.96 14.694L12.948 14.214ZM13.872 16.128C13.784 16.272 13.714 16.412 13.662 16.548C13.614 16.68 13.59 16.818 13.59 16.962C13.59 17.246 13.714 17.454 13.962 17.586C14.21 17.718 14.556 17.786 15 17.79C15.308 17.794 15.59 17.782 15.846 17.754C16.106 17.726 16.34 17.688 16.548 17.64L16.524 18.12C16.34 18.152 16.12 18.182 15.864 18.21C15.608 18.238 15.312 18.252 14.976 18.252C14.596 18.248 14.266 18.2 13.986 18.108C13.71 18.016 13.496 17.88 13.344 17.7C13.192 17.516 13.116 17.288 13.116 17.016C13.116 16.852 13.142 16.69 13.194 16.53C13.25 16.366 13.32 16.196 13.404 16.02L13.872 16.128ZM20.034 13.266C20.002 13.378 19.97 13.508 19.938 13.656C19.91 13.8 19.882 13.952 19.854 14.112C19.83 14.268 19.808 14.418 19.788 14.562C19.772 14.706 19.76 14.83 19.752 14.934C19.816 14.782 19.9 14.626 20.004 14.466C20.108 14.306 20.232 14.16 20.376 14.028C20.52 13.892 20.676 13.782 20.844 13.698C21.016 13.614 21.196 13.572 21.384 13.572C21.652 13.572 21.888 13.656 22.092 13.824C22.3 13.992 22.462 14.23 22.578 14.538C22.694 14.846 22.752 15.21 22.752 15.63C22.752 16.046 22.69 16.408 22.566 16.716C22.442 17.02 22.268 17.278 22.044 17.49C21.82 17.702 21.552 17.874 21.24 18.006C20.932 18.138 20.592 18.236 20.22 18.3L19.938 17.868C20.262 17.82 20.564 17.748 20.844 17.652C21.128 17.552 21.376 17.418 21.588 17.25C21.8 17.078 21.964 16.86 22.08 16.596C22.2 16.332 22.26 16.012 22.26 15.636C22.26 15.32 22.224 15.04 22.152 14.796C22.08 14.548 21.974 14.354 21.834 14.214C21.694 14.074 21.518 14.004 21.306 14.004C21.118 14.004 20.938 14.064 20.766 14.184C20.594 14.304 20.436 14.46 20.292 14.652C20.152 14.84 20.038 15.044 19.95 15.264C19.862 15.48 19.808 15.686 19.788 15.882C19.772 15.998 19.764 16.112 19.764 16.224C19.768 16.336 19.78 16.468 19.8 16.62L19.338 16.656C19.322 16.544 19.306 16.406 19.29 16.242C19.278 16.078 19.272 15.898 19.272 15.702C19.272 15.562 19.278 15.406 19.29 15.234C19.306 15.058 19.322 14.882 19.338 14.706C19.358 14.526 19.378 14.354 19.398 14.19C19.422 14.026 19.442 13.884 19.458 13.764C19.47 13.672 19.48 13.584 19.488 13.5C19.496 13.412 19.502 13.328 19.506 13.248L20.034 13.266Z" fill="black"/>
<path d="M50.648 13.686H55.406V14.07H50.648V13.686ZM50.312 15.246H55.7V15.624H50.312V15.246ZM52.172 13.842H52.592V15.456H52.172V13.842ZM53.354 13.842H53.786V15.456H53.354V13.842ZM50.948 14.292L51.314 14.148C51.426 14.284 51.528 14.438 51.62 14.61C51.716 14.782 51.782 14.936 51.818 15.072L51.422 15.228C51.39 15.096 51.328 14.942 51.236 14.766C51.148 14.59 51.052 14.432 50.948 14.292ZM51.392 13.104L51.782 12.954C51.878 13.05 51.968 13.16 52.052 13.284C52.14 13.404 52.202 13.514 52.238 13.614L51.824 13.794C51.792 13.698 51.734 13.584 51.65 13.452C51.566 13.32 51.48 13.204 51.392 13.104ZM54.662 14.118L55.07 14.256C54.978 14.424 54.878 14.596 54.77 14.772C54.662 14.944 54.562 15.09 54.47 15.21L54.122 15.084C54.182 14.996 54.246 14.896 54.314 14.784C54.382 14.672 54.446 14.558 54.506 14.442C54.57 14.322 54.622 14.214 54.662 14.118ZM54.146 12.948L54.584 13.092C54.508 13.216 54.426 13.336 54.338 13.452C54.254 13.564 54.176 13.662 54.104 13.746L53.708 13.614C53.78 13.522 53.858 13.412 53.942 13.284C54.026 13.156 54.094 13.044 54.146 12.948ZM51.194 15.996H54.83V18.45H54.362V16.356H51.65V18.474H51.194V15.996ZM51.446 16.944H54.578V17.298H51.446V16.944ZM51.452 17.904H54.584V18.264H51.452V17.904ZM57.554 15.33V17.454H57.122V15.75H56.252V15.33H57.554ZM57.554 17.268C57.698 17.492 57.898 17.658 58.154 17.766C58.41 17.87 58.714 17.93 59.066 17.946C59.234 17.95 59.436 17.954 59.672 17.958C59.912 17.958 60.164 17.958 60.428 17.958C60.692 17.954 60.946 17.948 61.19 17.94C61.438 17.932 61.654 17.922 61.838 17.91C61.822 17.942 61.804 17.984 61.784 18.036C61.764 18.088 61.744 18.142 61.724 18.198C61.708 18.254 61.696 18.306 61.688 18.354C61.52 18.358 61.322 18.362 61.094 18.366C60.87 18.374 60.632 18.378 60.38 18.378C60.132 18.382 59.892 18.382 59.66 18.378C59.432 18.374 59.234 18.37 59.066 18.366C58.678 18.35 58.344 18.286 58.064 18.174C57.784 18.062 57.55 17.886 57.362 17.646C57.21 17.778 57.054 17.908 56.894 18.036C56.734 18.168 56.568 18.3 56.396 18.432L56.174 17.988C56.322 17.892 56.484 17.782 56.66 17.658C56.836 17.53 57.004 17.4 57.164 17.268H57.554ZM56.348 13.374L56.666 13.098C56.794 13.186 56.924 13.288 57.056 13.404C57.192 13.516 57.316 13.63 57.428 13.746C57.54 13.858 57.628 13.966 57.692 14.07L57.35 14.382C57.29 14.278 57.204 14.168 57.092 14.052C56.984 13.932 56.866 13.814 56.738 13.698C56.61 13.578 56.48 13.47 56.348 13.374ZM58.754 13.968L59.036 13.71C59.228 13.778 59.43 13.858 59.642 13.95C59.858 14.038 60.064 14.128 60.26 14.22C60.46 14.312 60.626 14.398 60.758 14.478L60.458 14.766C60.334 14.686 60.174 14.598 59.978 14.502C59.786 14.406 59.582 14.312 59.366 14.22C59.15 14.124 58.946 14.04 58.754 13.968ZM58.178 14.466H61.28V14.814H58.604V17.574H58.178V14.466ZM61.07 14.466H61.502V17.124C61.502 17.236 61.488 17.322 61.46 17.382C61.432 17.438 61.378 17.484 61.298 17.52C61.218 17.552 61.112 17.572 60.98 17.58C60.852 17.584 60.686 17.586 60.482 17.586C60.474 17.53 60.458 17.468 60.434 17.4C60.41 17.328 60.384 17.268 60.356 17.22C60.5 17.224 60.628 17.226 60.74 17.226C60.856 17.226 60.932 17.226 60.968 17.226C61.008 17.222 61.034 17.212 61.046 17.196C61.062 17.18 61.07 17.156 61.07 17.124V14.466ZM58.184 13.206H61.178V13.566H58.184V13.206ZM58.412 15.342H61.238V15.678H58.412V15.342ZM58.412 16.224H61.238V16.578H58.412V16.224ZM59.618 14.61H60.026V17.55H59.618V14.61ZM61.028 13.206H61.13L61.22 13.182L61.502 13.404C61.366 13.528 61.212 13.652 61.04 13.776C60.868 13.896 60.688 14.008 60.5 14.112C60.312 14.216 60.126 14.306 59.942 14.382C59.914 14.342 59.876 14.296 59.828 14.244C59.78 14.192 59.738 14.15 59.702 14.118C59.87 14.05 60.038 13.97 60.206 13.878C60.374 13.786 60.53 13.69 60.674 13.59C60.818 13.486 60.936 13.386 61.028 13.29V13.206Z" fill="black"/>
<path d="M89.032 13.884C89.132 13.896 89.242 13.906 89.362 13.914C89.482 13.918 89.59 13.92 89.686 13.92H92.644C92.716 13.92 92.792 13.92 92.872 13.92C92.956 13.916 93.028 13.912 93.088 13.908C93.084 13.976 93.08 14.054 93.076 14.142C93.072 14.226 93.07 14.304 93.07 14.376V17.472C93.07 17.58 93.072 17.692 93.076 17.808C93.084 17.924 93.09 18.006 93.094 18.054H92.554C92.558 18.006 92.56 17.934 92.56 17.838C92.564 17.738 92.566 17.634 92.566 17.526V14.4H89.692C89.58 14.4 89.458 14.402 89.326 14.406C89.198 14.41 89.1 14.414 89.032 14.418V13.884ZM88.954 17.196C89.03 17.204 89.128 17.212 89.248 17.22C89.372 17.228 89.496 17.232 89.62 17.232H92.836V17.718H89.632C89.512 17.718 89.388 17.72 89.26 17.724C89.136 17.728 89.034 17.734 88.954 17.742V17.196ZM96.898 14.544C96.926 14.604 96.962 14.694 97.006 14.814C97.05 14.93 97.096 15.054 97.144 15.186C97.196 15.318 97.242 15.444 97.282 15.564C97.322 15.68 97.352 15.772 97.372 15.84L96.928 15.996C96.912 15.928 96.884 15.836 96.844 15.72C96.808 15.604 96.766 15.48 96.718 15.348C96.67 15.212 96.622 15.086 96.574 14.97C96.526 14.854 96.488 14.762 96.46 14.694L96.898 14.544ZM99.07 14.88C99.05 14.94 99.032 14.996 99.016 15.048C99.004 15.096 98.992 15.14 98.98 15.18C98.9 15.508 98.792 15.83 98.656 16.146C98.52 16.458 98.344 16.75 98.128 17.022C97.852 17.374 97.54 17.668 97.192 17.904C96.848 18.14 96.508 18.322 96.172 18.45L95.776 18.048C96.008 17.976 96.242 17.88 96.478 17.76C96.718 17.64 96.944 17.496 97.156 17.328C97.372 17.16 97.562 16.974 97.726 16.77C97.87 16.594 97.998 16.396 98.11 16.176C98.226 15.956 98.322 15.722 98.398 15.474C98.474 15.226 98.526 14.974 98.554 14.718L99.07 14.88ZM95.506 14.844C95.538 14.912 95.578 15.004 95.626 15.12C95.674 15.236 95.724 15.364 95.776 15.504C95.832 15.64 95.884 15.772 95.932 15.9C95.984 16.024 96.024 16.124 96.052 16.2L95.596 16.368C95.572 16.292 95.536 16.19 95.488 16.062C95.444 15.93 95.394 15.794 95.338 15.654C95.282 15.514 95.228 15.386 95.176 15.27C95.128 15.154 95.09 15.07 95.062 15.018L95.506 14.844ZM101.29 13.56C101.374 13.568 101.46 13.576 101.548 13.584C101.64 13.592 101.734 13.596 101.83 13.596C101.902 13.596 102.018 13.596 102.178 13.596C102.342 13.596 102.528 13.596 102.736 13.596C102.944 13.596 103.152 13.596 103.36 13.596C103.568 13.596 103.752 13.596 103.912 13.596C104.076 13.596 104.192 13.596 104.26 13.596C104.344 13.596 104.436 13.594 104.536 13.59C104.64 13.582 104.734 13.572 104.818 13.56V14.058C104.73 14.05 104.636 14.046 104.536 14.046C104.44 14.042 104.348 14.04 104.26 14.04C104.192 14.04 104.078 14.04 103.918 14.04C103.758 14.04 103.574 14.04 103.366 14.04C103.158 14.04 102.95 14.04 102.742 14.04C102.534 14.04 102.348 14.04 102.184 14.04C102.02 14.04 101.904 14.04 101.836 14.04C101.74 14.04 101.644 14.042 101.548 14.046C101.452 14.046 101.366 14.05 101.29 14.058V13.56ZM100.57 15.066C100.654 15.074 100.738 15.082 100.822 15.09C100.91 15.094 101 15.096 101.092 15.096C101.144 15.096 101.246 15.096 101.398 15.096C101.554 15.096 101.742 15.096 101.962 15.096C102.186 15.096 102.426 15.096 102.682 15.096C102.938 15.096 103.194 15.096 103.45 15.096C103.706 15.096 103.944 15.096 104.164 15.096C104.384 15.096 104.57 15.096 104.722 15.096C104.878 15.096 104.978 15.096 105.022 15.096C105.086 15.096 105.162 15.094 105.25 15.09C105.338 15.086 105.418 15.078 105.49 15.066V15.564C105.426 15.56 105.35 15.558 105.262 15.558C105.178 15.554 105.098 15.552 105.022 15.552C104.978 15.552 104.878 15.552 104.722 15.552C104.57 15.552 104.384 15.552 104.164 15.552C103.944 15.552 103.706 15.552 103.45 15.552C103.194 15.552 102.938 15.552 102.682 15.552C102.426 15.552 102.186 15.552 101.962 15.552C101.742 15.552 101.554 15.552 101.398 15.552C101.246 15.552 101.144 15.552 101.092 15.552C101.004 15.552 100.916 15.552 100.828 15.552C100.74 15.552 100.654 15.556 100.57 15.564V15.066ZM103.396 15.312C103.396 15.688 103.368 16.034 103.312 16.35C103.26 16.662 103.168 16.942 103.036 17.19C102.964 17.326 102.866 17.462 102.742 17.598C102.622 17.73 102.486 17.856 102.334 17.976C102.186 18.096 102.026 18.2 101.854 18.288L101.41 17.958C101.642 17.862 101.86 17.732 102.064 17.568C102.268 17.404 102.428 17.228 102.544 17.04C102.696 16.8 102.792 16.536 102.832 16.248C102.872 15.956 102.892 15.644 102.892 15.312H103.396ZM110.656 13.446C110.652 13.522 110.648 13.604 110.644 13.692C110.64 13.776 110.638 13.868 110.638 13.968C110.638 14.048 110.638 14.15 110.638 14.274C110.638 14.398 110.638 14.522 110.638 14.646C110.638 14.766 110.638 14.864 110.638 14.94C110.638 15.3 110.624 15.606 110.596 15.858C110.572 16.11 110.534 16.326 110.482 16.506C110.434 16.682 110.37 16.838 110.29 16.974C110.21 17.11 110.116 17.242 110.008 17.37C109.88 17.522 109.732 17.656 109.564 17.772C109.4 17.884 109.232 17.978 109.06 18.054C108.888 18.134 108.728 18.198 108.58 18.246L108.19 17.832C108.466 17.764 108.726 17.668 108.97 17.544C109.218 17.416 109.436 17.246 109.624 17.034C109.732 16.91 109.818 16.784 109.882 16.656C109.95 16.524 110 16.378 110.032 16.218C110.068 16.058 110.092 15.872 110.104 15.66C110.116 15.448 110.122 15.2 110.122 14.916C110.122 14.836 110.122 14.736 110.122 14.616C110.122 14.496 110.122 14.376 110.122 14.256C110.122 14.132 110.122 14.036 110.122 13.968C110.122 13.868 110.118 13.776 110.11 13.692C110.106 13.604 110.1 13.522 110.092 13.446H110.656ZM107.872 13.494C107.868 13.55 107.862 13.618 107.854 13.698C107.85 13.778 107.848 13.854 107.848 13.926C107.848 13.954 107.848 14.018 107.848 14.118C107.848 14.214 107.848 14.33 107.848 14.466C107.848 14.602 107.848 14.746 107.848 14.898C107.848 15.05 107.848 15.198 107.848 15.342C107.848 15.482 107.848 15.604 107.848 15.708C107.848 15.812 107.848 15.886 107.848 15.93C107.848 16.006 107.85 16.088 107.854 16.176C107.862 16.26 107.868 16.33 107.872 16.386H107.32C107.328 16.338 107.334 16.272 107.338 16.188C107.346 16.1 107.35 16.012 107.35 15.924C107.35 15.884 107.35 15.812 107.35 15.708C107.35 15.6 107.35 15.476 107.35 15.336C107.35 15.196 107.35 15.05 107.35 14.898C107.35 14.746 107.35 14.602 107.35 14.466C107.35 14.33 107.35 14.214 107.35 14.118C107.35 14.018 107.35 13.954 107.35 13.926C107.35 13.874 107.348 13.804 107.344 13.716C107.34 13.624 107.334 13.55 107.326 13.494H107.872Z" fill="black"/>
<circle cx="81" cy="6" r="3" fill="#802D2E"/>
<circle cx="35" cy="6" r="3" fill="#802D2E"/>
</svg>
